<svg width="26" height="26" viewBox="0 0 26 26" fill="none" xmlns="http://www.w3.org/2000/svg">
<path fill-rule="evenodd" clip-rule="evenodd" d="M8.96508 13.1973C8.96508 15.3963 10.7651 17.1854 12.9876 17.1854C15.1999 17.1854 17 15.3963 17 13.1973C17 10.9884 15.1999 9.19921 12.9876 9.19921C10.7651 9.19921 8.96508 10.9884 8.96508 13.1973ZM18.9006 7.06017C20.6605 8.41953 22.1588 10.4086 23.2348 12.8974C23.3153 13.0873 23.3153 13.3072 23.2348 13.4871C21.0828 18.4648 17.2514 21.4434 12.9876 21.4434H12.9775C8.72372 21.4434 4.8923 18.4648 2.74027 13.4871C2.65982 13.3072 2.65982 13.0873 2.74027 12.8974C4.8923 7.91977 8.72372 4.95117 12.9775 4.95117H12.9876C15.1195 4.95117 17.1408 5.69082 18.9006 7.06017ZM12.9888 15.6838C14.3665 15.6838 15.4928 14.5644 15.4928 13.195C15.4928 11.8157 14.3665 10.6962 12.9888 10.6962C12.8681 10.6962 12.7474 10.7062 12.6368 10.7262C12.5966 11.8257 11.6915 12.7052 10.5753 12.7052H10.525C10.4948 12.8652 10.4747 13.0251 10.4747 13.195C10.4747 14.5644 11.601 15.6838 12.9888 15.6838Z" fill="white" fill-opacity="0.86"/>
</svg>
