<svg width="25" height="25" viewBox="0 0 25 25" fill="none" xmlns="http://www.w3.org/2000/svg">
<path fill-rule="evenodd" clip-rule="evenodd" d="M12.3691 22.6769C6.67934 22.6769 2.06152 18.0694 2.06152 12.3693C2.06152 6.67946 6.67934 2.06165 12.3691 2.06165C18.0693 2.06165 22.6768 6.67946 22.6768 12.3693C22.6768 18.0694 18.0693 22.6769 12.3691 22.6769ZM15.6573 16.1935C15.781 16.2656 15.915 16.3068 16.0593 16.3068C16.317 16.3068 16.5746 16.1728 16.719 15.9255C16.9354 15.5647 16.822 15.0905 16.451 14.8638L12.7814 12.6786V7.91644C12.7814 7.48352 12.431 7.14336 12.0084 7.14336C11.5858 7.14336 11.2353 7.48352 11.2353 7.91644V13.1218C11.2353 13.3898 11.3796 13.6372 11.6167 13.7815L15.6573 16.1935Z" fill="white" fill-opacity="0.86"/>
</svg>
